<?xml version="1.0" standalone="no"?>
<!DOCTYPE svg PUBLIC "-//W3C//DTD SVG 20010904//EN"
 "http://www.w3.org/TR/2001/REC-SVG-20010904/DTD/svg10.dtd">
<svg version="1.0" xmlns="http://www.w3.org/2000/svg"
 width="300.000000pt" height="298.000000pt" viewBox="0 0 300.000000 298.000000"
 preserveAspectRatio="xMidYMid meet">
<metadata>
Created by potrace 1.10, written by Peter Selinger 2001-2011
</metadata>
<g transform="translate(0.000000,298.000000) scale(0.100000,-0.100000)"
fill="#000000" stroke="none">
<path d="M555 2859 c-146 -10 -354 -13 -396 -5 l-37 8 -7 -349 c-7 -336 -5
-446 16 -638 15 -139 21 -666 11 -1020 -8 -297 -2 -688 10 -701 7 -6 338 -19
868 -34 272 -8 498 -8 770 0 212 5 480 10 595 10 116 0 248 4 295 10 47 5 104
10 128 12 23 1 42 2 42 3 0 0 9 65 20 144 20 139 20 166 10 1064 -5 507 -15
1046 -22 1198 l-12 276 -285 6 c-383 9 -685 8 -746 -3 -80 -15 -329 -11 -620
10 -277 20 -465 23 -640 9z m670 -46 c268 -21 519 -23 625 -5 58 10 177 11
521 6 l446 -7 8 -161 c4 -89 8 -179 10 -201 1 -22 5 -312 9 -645 3 -333 8
-772 11 -976 5 -310 3 -393 -11 -500 -9 -71 -18 -131 -20 -133 -13 -14 -223
-28 -439 -30 -137 -1 -423 -6 -635 -11 -370 -9 -719 -4 -1318 19 -134 5 -246
12 -250 16 -11 10 -13 620 -5 980 8 325 3 509 -17 690 -16 145 -23 487 -15
740 l7 220 177 2 c97 2 208 6 246 10 112 13 401 6 650 -14z"/>
<path d="M1459 2248 c-6 -12 -26 -65 -44 -117 l-32 -96 -124 -5 c-68 -3 -114
-7 -102 -8 12 -1 23 -8 26 -14 3 -10 44 -13 162 -13 99 0 160 -4 162 -10 2 -7
-44 -10 -132 -10 -74 0 -135 0 -135 -1 0 0 25 -18 55 -39 48 -33 68 -55 49
-55 -3 0 -44 27 -90 61 -58 41 -91 59 -104 56 -11 -3 -20 0 -21 6 0 7 -4 3 -9
-8 -11 -26 -12 -35 -2 -34 18 3 26 -2 14 -10 -10 -6 12 -26 77 -72 63 -45 90
-70 91 -85 0 -11 -11 -52 -23 -90 -13 -38 -27 -82 -30 -99 l-7 -30 15 25 15
25 -2 -30 c-2 -22 3 -32 19 -41 13 -6 20 -14 16 -17 -3 -4 -3 -7 2 -7 4 0 48
29 96 65 49 36 94 65 99 65 5 0 50 -29 101 -65 50 -36 97 -65 103 -65 13 0 56
29 43 30 -4 0 -16 -5 -26 -12 -15 -9 -23 -9 -35 2 -22 17 -13 25 13 11 16 -9
22 -7 34 9 7 11 17 17 20 13 13 -12 7 14 -28 117 -19 57 -32 107 -28 110 5 4
45 35 91 69 82 62 102 82 60 60 -22 -12 -22 -11 -5 8 9 11 17 26 17 34 0 12 2
11 10 -1 9 -13 10 -13 10 1 0 41 -20 48 -144 51 l-119 3 -33 95 c-18 52 -33
89 -33 82 -1 -7 -12 0 -25 15 -22 25 -23 29 -8 35 11 4 6 7 -15 7 -23 1 -36
-5 -44 -21z m31 8 c0 -3 -4 -8 -10 -11 -5 -3 -10 -1 -10 4 0 6 5 11 10 11 6 0
10 -2 10 -4z m18 -28 c-3 -7 -20 -57 -37 -110 -18 -55 -38 -98 -45 -98 -11 0
4 54 59 208 2 6 9 12 16 12 6 0 9 -6 7 -12z m105 -329 c-6 -6 -25 42 -48 116
-21 69 -41 122 -45 118 -4 -4 -13 -29 -20 -55 -7 -26 -20 -53 -28 -60 -13 -11
-15 -10 -9 4 3 10 18 57 33 104 l27 86 49 -152 c29 -90 46 -156 41 -161z m-23
-26 c0 -2 -6 -3 -12 -3 -16 0 -72 176 -62 192 6 9 65 -144 74 -189z m270 137
c0 -5 -2 -10 -4 -10 -3 0 -8 5 -11 10 -3 6 -1 10 4 10 6 0 11 -4 11 -10z m-13
-25 c2 -6 -40 -10 -112 -10 -87 0 -115 3 -115 13 0 16 221 13 227 -3z m-508
-139 c1 -14 -21 -1 -107 60 -45 32 -82 64 -82 71 0 13 189 -116 189 -131z
m181 93 c0 -14 -186 -11 -198 4 -8 9 11 11 94 9 57 -2 104 -7 104 -13z m305
13 c-29 -29 -261 -190 -267 -186 -5 4 39 42 98 85 l108 79 -67 0 c-47 0 -67 4
-67 13 0 9 27 12 99 12 55 0 98 -2 96 -3z m-425 -46 c0 -2 -17 -58 -39 -125
-21 -66 -37 -121 -34 -121 2 0 27 18 56 39 28 22 55 37 59 35 7 -5 -152 -133
-159 -129 -2 1 79 261 91 291 5 12 26 20 26 10z m19 -83 c-16 -48 -36 -94 -45
-103 -14 -13 -16 -13 -11 0 3 8 18 54 33 103 15 48 33 87 39 87 8 0 3 -29 -16
-87z m122 61 c7 -21 6 -31 -7 -45 -21 -24 -36 -24 -64 -1 -18 15 -20 21 -11
45 8 21 17 27 41 27 24 0 33 -6 41 -26z m83 -30 c-83 -60 -104 -71 -104 -58 1
14 143 112 164 113 10 1 -17 -24 -60 -55z m-62 -112 c21 -15 38 -33 38 -39 0
-7 -36 13 -80 45 -43 31 -79 63 -80 70 0 9 17 1 43 -18 23 -17 59 -44 79 -58z
m128 -44 c18 -57 33 -105 33 -108 1 -3 -2 -6 -7 -8 -10 -3 -77 198 -70 210 3
4 7 8 9 8 2 0 18 -46 35 -102z m-94 -31 l51 -37 -23 65 c-14 39 -20 67 -14 70
6 4 12 0 15 -7 20 -53 55 -163 55 -171 0 -6 -10 -1 -22 10 -13 11 -71 55 -131
97 -59 43 -105 82 -102 87 3 4 31 -11 63 -34 31 -24 80 -60 108 -80z m-116 36
c-1 -9 -171 -133 -182 -133 -21 0 -2 18 78 76 85 62 104 72 104 57z"/>
<path d="M1254 1551 c11 -11 23 -21 28 -21 14 0 -1 19 -25 31 -22 12 -22 12
-3 -10z"/>
<path d="M437 1339 c-26 -15 -47 -63 -47 -107 0 -23 -6 -45 -15 -52 -20 -16
-19 -40 1 -69 14 -20 16 -41 11 -126 -4 -70 -2 -106 6 -114 6 -6 32 -11 59
-11 40 0 50 4 64 25 l16 25 25 -25 c25 -24 28 -25 174 -24 133 1 151 3 162 19
13 18 13 18 25 -1 17 -27 75 -26 101 2 l19 21 21 -21 c28 -28 86 -29 103 -2
12 19 12 19 36 0 36 -28 171 -28 197 1 17 19 18 19 43 0 29 -23 117 -27 142
-7 48 37 65 111 36 153 -13 17 -12 23 5 44 10 14 19 21 19 15 1 -42 33 -181
47 -205 14 -25 15 -35 5 -63 -17 -47 -15 -71 8 -92 24 -21 60 -14 78 15 7 12
27 97 43 188 16 92 32 172 34 177 3 6 3 -41 2 -103 -4 -134 2 -145 79 -140 38
2 51 8 59 25 l11 22 26 -25 c27 -27 24 -27 201 -24 99 2 109 4 124 24 l18 23
18 -24 c25 -31 80 -32 101 -1 l16 22 16 -22 c29 -42 114 -19 114 31 0 9 -4 19
-10 22 -6 3 -10 50 -10 107 0 100 0 100 -32 132 l-33 33 -152 1 c-119 0 -154
-3 -163 -14 -10 -12 -15 -12 -33 1 -12 8 -33 15 -47 15 -14 0 -35 -7 -47 -15
-18 -13 -22 -13 -33 0 -15 18 -63 20 -90 3 -26 -16 -33 -6 -19 25 10 22 9 31
-5 52 -33 50 -105 16 -93 -44 7 -33 -8 -50 -26 -32 -6 6 -24 11 -39 11 -21 0
-33 -8 -46 -29 l-16 -29 -18 29 c-13 21 -25 29 -47 29 -29 0 -61 -22 -61 -42
0 -5 -14 2 -31 16 -24 20 -41 26 -81 26 -43 0 -54 -4 -79 -31 -34 -36 -39 -85
-13 -125 16 -23 16 -26 -2 -39 -18 -13 -19 -10 -24 59 -7 103 -35 135 -118
136 -42 0 -58 -5 -75 -23 l-23 -22 -22 27 c-15 18 -22 40 -22 70 0 24 -5 49
-12 56 -34 34 -98 -16 -98 -77 0 -20 -6 -43 -13 -53 -12 -15 -15 -15 -37 3
-36 27 -179 28 -203 1 -10 -10 -17 -23 -17 -30 0 -6 -13 3 -29 19 -25 24 -38
29 -79 29 -34 0 -57 -6 -74 -20 -24 -19 -26 -19 -42 -1 -20 22 -21 45 -1 61
18 15 20 71 3 88 -15 15 -66 15 -91 1z m83 -44 c0 -19 -5 -25 -17 -23 -15 2
-19 -6 -21 -44 -2 -38 0 -48 12 -48 21 0 21 -39 1 -46 -12 -5 -15 -26 -15
-104 0 -55 4 -102 10 -105 6 -3 10 -13 10 -21 0 -10 -13 -14 -50 -14 -37 0
-50 4 -50 14 0 8 5 18 10 21 6 3 10 50 10 106 0 81 -3 99 -15 99 -8 0 -15 9
-15 20 0 11 7 23 15 26 10 4 15 21 15 53 0 62 21 91 66 91 30 0 34 -3 34 -25z
m582 -55 c-4 -56 -3 -60 17 -60 11 0 21 -4 21 -9 0 -21 -13 -41 -26 -41 -11 0
-14 -19 -14 -88 0 -88 9 -115 36 -105 10 4 14 -3 14 -21 0 -22 -5 -26 -28 -26
-15 0 -38 7 -50 16 -20 14 -22 23 -22 120 0 97 -1 104 -20 104 -11 0 -20 5
-20 10 0 6 9 19 20 30 14 14 20 33 20 63 0 45 13 67 40 67 14 0 16 -10 12 -60z
m848 5 c0 -27 -26 -40 -46 -24 -19 16 -18 36 3 47 24 14 43 4 43 -23z m-1241
-91 c18 -23 21 -41 21 -125 0 -54 4 -101 10 -104 6 -3 10 -12 10 -20 0 -18
-151 -19 -175 -1 -22 16 -34 73 -23 113 9 36 49 63 93 63 20 0 25 5 25 24 0
41 -53 45 -63 5 -3 -13 -14 -19 -31 -19 -21 0 -26 5 -26 25 0 41 33 65 89 65
42 0 53 -4 70 -26z m252 5 c16 -16 19 -34 19 -118 0 -56 4 -103 10 -106 6 -3
10 -15 10 -26 0 -17 -6 -20 -32 -17 l-33 3 -2 95 c-4 134 -7 142 -46 138 l-32
-3 -3 -88 c-2 -49 1 -94 6 -100 5 -7 12 -20 15 -29 6 -16 0 -18 -43 -18 -43 0
-50 3 -50 19 0 11 5 23 10 26 6 3 10 48 10 100 0 52 -4 97 -10 100 -5 3 -10
15 -10 25 0 16 9 18 81 18 66 0 84 -3 100 -19z m377 5 c20 -14 22 -23 22 -119
0 -58 4 -107 10 -110 6 -3 10 -14 10 -24 0 -17 -9 -19 -75 -19 -93 0 -115 14
-122 79 -7 60 23 98 85 106 32 4 42 10 42 24 0 24 -30 40 -53 28 -9 -6 -17
-17 -17 -24 0 -10 -10 -15 -28 -15 -26 0 -28 3 -24 30 2 17 14 37 25 45 28 20
97 19 125 -1z m236 -5 c18 -14 26 -30 26 -50 0 -27 -3 -30 -27 -27 -20 2 -29
9 -31 26 -4 30 -29 39 -49 19 -22 -22 -11 -43 35 -66 58 -30 72 -47 72 -91 0
-53 -29 -80 -87 -80 -55 0 -93 33 -93 80 0 28 3 31 28 28 21 -2 28 -9 30 -29
3 -30 29 -42 56 -27 27 15 19 46 -16 64 -60 30 -88 64 -88 105 0 28 6 42 22
53 32 23 90 20 122 -5z m146 -66 c16 -118 28 -173 29 -145 1 13 8 70 17 128
l17 104 29 0 c28 0 30 -2 24 -27 -3 -16 -20 -102 -36 -193 -17 -91 -33 -175
-35 -187 -4 -18 -12 -23 -35 -23 -33 0 -40 22 -16 49 20 24 28 91 11 91 -20 0
-24 9 -45 122 -10 57 -24 118 -29 136 -9 32 -9 32 24 32 l33 0 12 -87z m230
-32 c0 -69 4 -122 10 -126 6 -3 10 -15 10 -26 0 -16 -7 -19 -45 -19 -38 0 -45
3 -45 19 0 11 5 23 10 26 6 3 10 48 10 100 0 52 -4 97 -10 100 -5 3 -10 15
-10 26 0 15 7 19 35 19 l35 0 0 -119z m120 5 c0 -119 8 -142 47 -134 16 3 18
16 21 102 2 59 -1 103 -8 110 -22 22 -11 37 28 34 l37 -3 3 -120 c1 -66 7
-124 12 -129 26 -26 9 -35 -67 -35 -66 0 -81 3 -100 21 -21 19 -23 31 -23 119
0 54 -4 101 -10 104 -5 3 -10 15 -10 26 0 15 7 19 35 19 l35 0 0 -114z m357
103 c8 -7 18 -7 32 0 33 18 89 13 111 -9 17 -17 20 -33 20 -119 0 -56 4 -103
10 -106 6 -3 10 -15 10 -26 0 -17 -6 -20 -32 -17 l-33 3 -2 95 c-4 134 -7 142
-46 138 l-32 -3 -3 -94 c-2 -56 1 -98 8 -105 5 -5 10 -16 10 -23 0 -17 -54
-17 -68 0 -6 7 -13 60 -14 118 l-3 104 -35 0 -35 0 -3 -89 c-2 -53 1 -93 8
-100 5 -5 10 -18 10 -28 0 -15 -8 -18 -45 -18 -38 0 -45 3 -45 19 0 11 5 23
10 26 6 3 10 48 10 100 0 52 -4 97 -10 100 -5 3 -10 15 -10 25 0 16 9 18 82
18 46 0 88 -4 95 -9z m-1257 -93 c5 -5 4 -18 -2 -30 -7 -12 -15 -37 -19 -56
-5 -26 -7 -14 -8 46 -1 76 10 123 17 72 2 -12 8 -27 12 -32z m-403 -89 c-2
-23 -3 -1 -3 48 0 50 1 68 3 42 2 -26 2 -67 0 -90z m-233 65 c-4 -9 -10 -39
-14 -67 -6 -44 -7 -39 -9 40 -1 84 0 88 15 67 10 -14 13 -30 8 -40z m1836 -38
c0 -54 -4 -83 -10 -79 -5 3 -10 42 -10 86 0 46 4 79 10 79 6 0 10 -35 10 -86z
m127 -36 c-2 -24 -4 -5 -4 42 0 47 2 66 4 43 2 -24 2 -62 0 -85z"/>
<path d="M630 1027 c-49 -24 -32 -108 19 -92 15 4 20 17 23 55 3 53 -2 57 -42
37z m7 -49 c-3 -8 -6 -5 -6 6 -1 11 2 17 5 13 3 -3 4 -12 1 -19z"/>
<path d="M1270 1031 c-15 -4 -29 -18 -34 -34 -8 -23 -6 -31 12 -50 32 -32 56
-14 60 47 2 25 -1 46 -5 45 -4 -1 -19 -4 -33 -8z m7 -53 c-3 -8 -6 -5 -6 6 -1
11 2 17 5 13 3 -3 4 -12 1 -19z"/>
</g>
</svg>
