<?xml version="1.0" standalone="no"?>
<!DOCTYPE svg PUBLIC "-//W3C//DTD SVG 20010904//EN"
 "http://www.w3.org/TR/2001/REC-SVG-20010904/DTD/svg10.dtd">
<svg version="1.0" xmlns="http://www.w3.org/2000/svg"
 width="3240.000000pt" height="3216.000000pt" viewBox="0 0 3240.000000 3216.000000"
 preserveAspectRatio="xMidYMid meet">

<g transform="translate(0.000000,3216.000000) scale(0.100000,-0.100000)"
fill="#000000" stroke="none">
<path d="M7850 30950 c-615 -16 -1305 -49 -1800 -85 -300 -22 -1031 -68 -1515
-94 -492 -28 -1635 -71 -1862 -71 -104 0 -233 13 -597 60 -407 53 -482 60
-603 58 l-138 -3 -6 -235 c-4 -129 -14 -314 -22 -410 -18 -197 -33 -442 -48
-765 -5 -121 -14 -924 -19 -1785 -5 -861 -14 -1722 -19 -1915 -6 -192 -13
-543 -17 -780 -7 -519 12 -2687 26 -2905 23 -362 66 -771 115 -1095 47 -316
61 -467 75 -835 32 -859 83 -1242 196 -1477 l34 -71 0 -2599 0 -2600 -24 -59
-24 -59 -5 -850 c-5 -802 -25 -1583 -77 -2935 -75 -1981 -85 -4351 -25 -5830
3 -74 10 -274 16 -444 15 -462 52 -856 110 -1151 13 -67 24 -172 28 -270 l6
-160 659 -5 c648 -5 658 -5 637 -24 -12 -11 -21 -24 -21 -29 0 -7 430 -8 1297
-3 1108 6 1342 4 1598 -9 483 -25 880 -63 1355 -130 415 -59 347 -57 1965 -65
825 -4 1678 -13 1895 -19 900 -25 1232 -37 2115 -76 826 -37 2075 -36 3943 5
757 16 1802 39 2322 50 1215 26 1420 32 2830 85 212 8 529 19 705 25 176 6
442 16 590 22 161 6 1148 14 2440 18 l2170 7 470 31 470 31 385 70 385 71 348
0 347 0 1 138 1 137 23 -94 c33 -128 62 -186 95 -186 20 0 30 10 52 55 72 149
137 504 248 1355 47 355 94 668 105 685 6 9 42 345 60 560 47 563 66 1289 46
1765 -16 376 -74 8908 -69 10095 8 1661 -9 3004 -47 3890 -30 698 -36 1027
-45 2570 -5 866 -14 1721 -19 1900 -21 669 -49 1287 -77 1695 -49 741 -164
3631 -164 4148 l0 317 -1162 0 c-939 0 -1457 6 -2688 30 -839 16 -1905 37
-2370 46 -1179 22 -3987 16 -4270 -10 -397 -36 -614 -65 -928 -127 -127 -24
-168 -37 -242 -74 l-90 -45 -1570 0 c-1541 0 -1571 0 -1598 19 -31 23 -116 46
-217 60 -152 21 -460 45 -1665 126 -690 47 -1552 105 -1915 130 -1131 76
-1482 96 -2120 115 -462 15 -1685 20 -2085 10z m8425 -6857 c-3 -16 -174 -543
-379 -1173 l-372 -1145 -120 -5 c-65 -3 -121 -5 -123 -4 -2 2 742 2258 769
2330 9 23 12 24 121 24 l111 0 -7 -27z m715 -1898 c293 -902 533 -1644 534
-1649 2 -14 -175 -140 -182 -128 -4 5 -207 627 -452 1380 -245 754 -448 1367
-451 1364 -4 -4 -105 -319 -225 -699 l-219 -693 -107 0 c-60 0 -108 2 -108 5
0 16 671 2068 675 2063 1 -2 242 -741 535 -1643z m-200 -875 c188 -580 343
-1058 344 -1062 2 -11 -178 -138 -185 -130 -3 4 -144 432 -313 952 l-306 945
55 174 c30 96 55 177 55 180 0 17 43 -113 350 -1059z m-523 115 c17 -49 32
-95 32 -101 1 -8 -337 -13 -1231 -19 -678 -4 -1329 -10 -1446 -14 l-213 -6
590 -424 589 -423 -32 -94 c-17 -52 -34 -95 -38 -96 -5 -2 -402 281 -884 627
l-875 630 1478 5 c813 3 1595 5 1738 5 l260 0 32 -90z m3652 2 c17 -50 31 -98
31 -105 0 -10 -247 -12 -1212 -10 l-1212 3 -28 90 c-15 50 -28 96 -28 103 0 9
248 12 1209 12 l1209 0 31 -93z m-6779 -496 c371 -267 812 -583 980 -704 168
-121 308 -222 313 -226 6 -6 -45 -177 -57 -188 -5 -5 -1950 1389 -1977 1416
-15 15 -14 24 13 109 20 63 33 90 41 85 7 -4 316 -225 687 -492z m3279 26 c18
-59 32 -110 29 -112 -2 -3 -450 -8 -995 -12 l-990 -6 -159 114 -159 114 540 5
c297 3 801 5 1120 5 l579 0 35 -108z m3315 105 c-5 -5 -441 -323 -969 -707
-528 -385 -1145 -835 -1372 -1001 -226 -167 -420 -308 -431 -315 -17 -11 -30
-5 -101 46 -45 32 -81 61 -81 64 0 3 517 384 1150 846 l1150 840 -700 3 -699
2 -36 110 c-19 60 -35 112 -35 115 0 3 480 5 1067 5 587 0 1063 -4 1057 -8z
m-1399 -470 c-6 -5 -109 -81 -230 -169 -121 -87 -513 -374 -872 -636 -358
-262 -656 -478 -661 -479 -13 -4 -152 95 -148 106 1 5 364 274 807 598 l804
588 155 0 c84 0 150 -4 145 -8z m-3199 -19 c-139 -430 -865 -2717 -863 -2719
2 -2 270 192 597 431 l594 435 25 -17 c15 -9 50 -34 79 -55 l53 -39 -393 -288
c-1202 -879 -1382 -1010 -1385 -1007 -7 6 650 2068 855 2684 l197 592 123 0
c113 0 123 -1 118 -17z m472 5 c-3 -7 -146 -441 -318 -963 l-313 -950 -120
-88 c-66 -48 -122 -85 -124 -83 -4 4 636 2025 657 2074 9 21 15 22 116 22 81
0 105 -3 102 -12z m951 -50 c11 -35 56 -175 100 -311 45 -137 81 -252 81 -256
0 -8 -488 -369 -520 -385 -14 -6 -75 33 -281 184 -145 106 -267 196 -271 199
-6 5 151 498 197 619 3 9 80 12 339 12 l334 0 21 -62z m-152 -1410 l801 -588
45 -142 c25 -78 45 -144 43 -145 -3 -4 -1734 1243 -1760 1267 -18 17 -18 20
14 114 23 69 35 94 44 89 7 -5 373 -272 813 -595z m1865 -874 c207 -637 376
-1165 375 -1173 -2 -15 -154 -130 -172 -131 -5 0 -47 114 -92 253 -45 138
-215 663 -378 1165 -163 501 -295 916 -293 921 5 15 162 131 173 128 5 -2 179
-525 387 -1163z m-1656 185 c625 -451 1138 -818 1140 -816 2 2 -96 309 -217
683 -122 373 -222 683 -223 688 0 4 40 39 91 77 l92 68 40 -122 c22 -67 162
-498 311 -957 149 -459 282 -868 295 -909 14 -41 24 -76 22 -77 -1 -1 -477
343 -1057 764 -581 422 -1209 878 -1397 1014 l-341 248 31 95 c31 94 31 94 54
79 13 -8 535 -384 1159 -835z m-703 -32 l87 -64 -997 -729 c-548 -401 -1000
-731 -1005 -733 -13 -5 -178 110 -172 120 2 5 327 243 720 531 631 462 1278
935 1280 937 0 1 39 -28 87 -62z m-10443 -4152 c116 -24 110 -11 110 -270 0
-261 2 -254 -87 -236 -156 31 -261 -12 -314 -131 -24 -53 -24 -55 -27 -470
l-4 -418 181 0 181 0 0 -140 c0 -115 -3 -149 -20 -193 -42 -113 -145 -188
-276 -202 l-64 -7 1 -972 c0 -534 4 -993 8 -1019 7 -42 16 -56 75 -112 100
-96 119 -144 124 -317 l4 -138 -506 0 -506 0 0 73 c0 112 17 232 39 274 20 40
69 95 112 128 14 11 34 33 45 50 18 28 19 60 22 1032 l2 1003 -186 0 -186 0 4
138 c5 151 18 200 76 285 42 60 115 97 214 105 l73 7 5 520 5 520 27 72 c81
225 251 372 486 424 102 22 262 20 382 -6z m6460 -855 l0 -660 191 0 191 0 -4
-127 c-5 -141 -23 -203 -81 -290 -41 -61 -114 -99 -220 -114 l-77 -11 2 -973
3 -972 30 -49 c19 -30 49 -60 80 -79 47 -29 52 -30 182 -31 183 -1 173 10 173
-206 0 -182 -7 -213 -52 -236 -73 -37 -307 -54 -434 -31 -286 50 -486 214
-561 459 -16 50 -18 155 -20 1088 l-4 1032 -179 0 -180 0 0 98 c0 292 84 416
288 430 l72 5 0 416 c0 238 5 444 11 481 15 98 56 176 131 251 107 107 263
173 421 178 l37 1 0 -660z m8978 321 c143 -74 212 -232 168 -383 -20 -70 -96
-157 -170 -196 -44 -23 -63 -27 -141 -27 -75 0 -97 4 -133 23 -63 33 -114 84
-147 144 -37 67 -46 180 -21 254 29 87 106 166 194 200 57 21 196 13 250 -15z
m-13706 -981 c304 -62 509 -226 591 -470 52 -154 50 -128 56 -1152 l6 -957 57
-56 c38 -37 70 -82 95 -132 37 -75 38 -78 41 -215 l4 -139 -323 3 c-369 3
-367 3 -424 89 l-31 45 -44 -32 c-56 -39 -215 -99 -301 -113 -129 -21 -324
-11 -464 25 -271 68 -453 273 -530 597 -13 56 -29 149 -35 206 -43 434 57 766
289 958 169 139 320 189 721 238 123 15 321 57 350 75 12 7 12 29 3 152 -7 89
-18 161 -30 192 -22 59 -82 130 -132 156 -62 31 -184 45 -285 32 -99 -13 -156
-35 -208 -81 -46 -40 -66 -93 -77 -202 -5 -50 -15 -96 -25 -111 -39 -59 -178
-87 -438 -88 l-128 0 0 143 c0 169 11 250 47 359 92 277 350 456 720 497 129
14 378 4 495 -19z m6724 20 c371 -33 621 -192 727 -460 62 -159 60 -125 66
-1177 l6 -963 46 -42 c26 -24 62 -68 82 -98 52 -83 67 -144 67 -282 l0 -119
-323 3 -324 3 -39 26 c-22 14 -48 43 -59 63 -11 20 -23 36 -27 36 -4 0 -26
-13 -50 -29 -46 -30 -135 -68 -233 -98 -49 -15 -92 -18 -240 -17 -160 1 -191
4 -277 27 -143 38 -228 85 -323 181 -124 125 -199 288 -240 521 -25 141 -26
437 -2 559 59 294 201 489 443 610 132 65 269 98 524 126 119 13 271 43 344
66 l49 17 -6 126 c-10 196 -47 293 -134 350 -66 44 -113 55 -238 55 -242 0
-346 -79 -361 -274 -4 -47 -13 -97 -21 -112 -33 -68 -173 -98 -445 -98 l-131
0 6 183 c7 248 41 369 142 507 174 237 526 349 971 310z m-4018 -20 c217 -23
355 -80 467 -194 102 -103 160 -221 207 -421 21 -87 22 -117 27 -1026 5 -701
9 -939 18 -950 6 -8 42 -44 78 -82 95 -97 108 -130 113 -304 l5 -143 -275 0
c-357 0 -409 14 -463 121 -55 108 -55 98 -55 1094 0 506 -5 962 -10 1013 -18
189 -65 271 -194 337 l-79 40 -131 0 c-127 0 -133 -1 -210 -34 -44 -19 -102
-53 -130 -76 l-51 -41 0 -961 0 -962 77 -73 c109 -103 121 -134 126 -315 l4
-143 -507 0 -507 0 4 148 c4 182 16 211 127 319 l76 73 3 1006 2 1006 -79 76
c-117 114 -124 133 -129 325 l-4 158 360 -3 c407 -3 385 1 424 -86 11 -24 23
-42 26 -40 237 127 426 165 680 138z m6686 -16 c133 -25 196 -44 296 -92 82
-39 108 -59 185 -136 168 -169 215 -325 215 -706 l0 -160 -147 0 c-291 1 -400
32 -440 128 -8 18 -18 82 -23 140 -8 92 -15 117 -45 179 -66 133 -151 183
-315 183 -77 0 -94 -4 -148 -31 -114 -56 -165 -149 -165 -296 0 -60 5 -82 31
-136 57 -116 185 -207 557 -397 132 -67 285 -152 340 -188 135 -88 279 -233
328 -330 53 -108 60 -154 55 -406 -5 -204 -7 -228 -32 -311 -64 -212 -195
-365 -391 -459 -199 -95 -467 -128 -747 -91 -170 22 -260 49 -398 117 -108 53
-135 72 -200 137 -87 88 -140 179 -171 298 -18 67 -22 116 -26 346 l-5 267
193 0 c349 0 393 -29 410 -273 10 -137 21 -191 51 -251 57 -114 147 -156 339
-156 265 0 371 101 386 367 12 208 -36 256 -490 491 -354 183 -500 284 -629
436 -129 152 -172 256 -189 459 -20 233 9 422 83 548 103 175 341 303 628 338
99 13 361 4 464 -15z m9222 15 c208 -23 362 -84 475 -188 l65 -59 63 43 c252
176 560 245 893 200 435 -58 641 -307 678 -822 5 -76 10 -504 10 -952 l0 -814
76 -74 c106 -103 117 -132 122 -311 l4 -144 -288 4 -289 3 -60 30 c-69 35
-115 89 -142 168 -16 48 -18 134 -23 1072 l-5 1020 -23 64 c-60 165 -173 248
-355 258 -121 7 -225 -19 -367 -90 l-105 -52 -3 -955 c-1 -525 0 -965 3 -977
3 -13 38 -55 78 -95 104 -105 111 -122 115 -300 l4 -148 -264 0 c-315 0 -332
4 -414 87 -29 30 -66 80 -81 111 l-28 57 -5 1025 c-5 1121 -2 1050 -63 1146
-98 152 -312 227 -516 179 -74 -18 -184 -70 -247 -117 l-43 -33 -1 -942 c0
-645 3 -951 11 -970 6 -15 39 -56 74 -90 35 -34 73 -80 85 -103 25 -49 42
-170 38 -270 l-3 -75 -504 -3 -503 -2 4 142 c5 178 21 221 112 305 107 98 96
-24 96 1071 0 697 -3 969 -11 985 -7 12 -43 54 -80 94 -97 100 -99 107 -99
323 l0 181 344 -3 c331 -3 346 -4 372 -24 16 -11 37 -39 49 -61 l20 -41 58 29
c205 104 437 145 673 118z m-7420 -31 c20 -11 38 -32 48 -58 16 -40 64 -342
151 -940 41 -282 149 -1014 210 -1415 14 -93 28 -183 32 -200 7 -32 7 -33 138
825 221 1448 256 1668 270 1706 19 52 49 79 100 93 24 7 142 11 294 11 l253 0
-4 -152 c-5 -172 -19 -219 -83 -276 -18 -17 -38 -46 -44 -64 -11 -33 -100
-527 -390 -2148 -88 -492 -183 -1016 -210 -1165 -28 -148 -66 -361 -86 -471
-52 -294 -80 -361 -164 -384 -20 -5 -141 -10 -270 -10 l-234 0 5 204 c4 193 5
206 29 252 21 42 35 54 91 81 54 27 68 39 77 65 11 36 171 913 171 939 0 14
-20 17 -142 21 -156 5 -185 13 -231 67 -41 49 -30 1 -181 836 -47 259 -115
633 -151 833 -67 373 -147 772 -166 830 -6 18 -30 52 -54 77 -25 25 -48 60
-54 82 -6 21 -11 116 -11 211 l0 173 288 -3 c248 -3 291 -5 318 -20z m2627 9
c67 -28 61 77 67 -1308 l5 -1259 77 -74 c101 -96 117 -131 129 -289 4 -67 9
-132 9 -144 l0 -23 -511 0 -511 0 3 143 c4 131 6 146 32 199 18 37 50 77 90
113 34 31 67 66 74 78 9 17 12 256 13 1017 0 1114 6 1017 -72 1077 -49 38 -84
82 -110 140 -19 41 -23 71 -26 196 l-4 147 351 0 c272 0 359 -3 384 -13z
m1237 -9 c47 -21 76 -54 89 -103 8 -28 11 -366 11 -1095 1 -839 3 -1070 14
-1130 26 -145 96 -242 216 -298 44 -21 74 -27 154 -30 163 -7 282 33 364 122
l42 46 0 954 c0 639 -3 964 -10 982 -6 15 -42 60 -80 100 -90 95 -100 127
-100 327 l0 148 323 -3 c365 -3 363 -3 422 -87 l30 -43 5 -1229 5 -1229 67
-60 c45 -40 76 -79 95 -118 26 -53 28 -67 31 -200 l4 -144 -309 4 c-347 4
-359 6 -403 77 l-24 38 -71 -47 c-123 -83 -268 -117 -458 -106 -251 14 -436
77 -592 202 -177 140 -274 331 -305 599 -6 55 -10 419 -10 928 0 933 5 864
-72 928 -24 20 -57 60 -73 90 -30 53 -30 56 -33 227 l-4 174 319 -4 c263 -3
324 -7 353 -20z"/>
<path d="M7259 11216 c-10 -10 -195 -46 -341 -66 -173 -24 -239 -53 -320 -138
-113 -118 -153 -241 -145 -452 4 -112 9 -146 30 -203 45 -121 108 -191 223
-244 55 -26 68 -28 189 -28 123 0 133 2 183 28 67 35 136 98 168 152 l24 42
-2 457 c-2 252 -6 455 -9 452z"/>
<path d="M14050 11194 c-30 -7 -134 -25 -230 -40 -214 -31 -270 -54 -353 -144
-110 -118 -153 -253 -144 -455 10 -234 85 -363 255 -443 53 -25 67 -27 187
-27 124 0 133 1 188 30 66 33 126 88 169 154 l28 45 0 448 0 448 -22 -1 c-13
-1 -48 -7 -78 -15z"/>
</g>
</svg>
